<svg width="24" height="24" viewBox="0 0 24 24" fill="none" xmlns="http://www.w3.org/2000/svg">
<path fill-rule="evenodd" clip-rule="evenodd" d="M12 2C17.5235 2 22 6.47649 22 12C22 17.5235 17.5235 22 12 22C6.47649 21.996 2 17.5196 2 12C2 6.47649 6.47649 2 12 2ZM7.57487 12.2647C7.70921 11.4864 8.59818 11.0557 9.29751 11.4745C9.36073 11.514 9.41999 11.5575 9.47926 11.6089L9.48321 11.6128C9.79929 11.9131 10.1509 12.2292 10.4986 12.5373L10.7989 12.806L14.3548 9.07625C14.5682 8.855 14.7222 8.70881 15.0423 8.63769C16.1328 8.39668 16.8993 9.72817 16.1249 10.546L11.6958 15.2003C11.277 15.6468 10.5342 15.6863 10.0838 15.2596C9.82695 15.0225 9.54643 14.7776 9.2659 14.5326C8.77598 14.1059 8.27815 13.6713 7.8712 13.2446C7.62228 12.9996 7.51956 12.6006 7.57487 12.2647Z" fill="#03BA36"/>
</svg>
