<svg width="217" height="71" viewBox="0 0 217 71" fill="none" xmlns="http://www.w3.org/2000/svg">
<g clip-path="url(#clip0_1193_457)">
<path d="M85.8717 16.3433H90.3413L92.1195 14.8584H87.6499L85.8717 16.3433Z" fill="white"/>
<path d="M200.818 10.656H201.43L202.829 16.3432H210.761L206.316 0H195.936L191.49 16.3432H199.42L200.818 10.656Z" fill="white"/>
<path d="M212.054 21.0986H203.998L205.4 26.7949H196.852L198.251 21.0986H190.734H190.194H179.851L178.073 22.5836H189.791L185.249 39.2785V42.6271H193.187L195.324 33.4921H206.925L209.061 42.6271H217V39.2785L212.054 21.0986Z" fill="white"/>
<path d="M147.876 6.69721H156.421C158.253 6.69721 159.474 7.91761 159.474 9.43861V14.8493H155.3L153.518 16.3342H167.415V8.21821C167.415 3.3486 164.058 0 158.561 0H139.938V16.3432H147.876V6.69721Z" fill="white"/>
<path d="M167.072 21.0986H128.624L126.846 22.5836H139.938V42.6271H147.876V26.7949H153.983L160.393 42.6271H168.332V39.2785L161.918 26.1847C161.918 26.1847 165.881 25.2919 167.072 21.0986Z" fill="white"/>
<path d="M114.356 21.0986H106.417V42.6271H114.356V21.0986Z" fill="white"/>
<path d="M96.345 6.70021H106.417V14.8583H95.709L93.9308 16.3432H106.417H106.457H114.356V6.70021H122.292L124.428 4.566V0H96.345V6.70021Z" fill="white"/>
<path d="M71.8692 0H63.9336V16.3432H71.8692V0Z" fill="white"/>
<path d="M71.8692 21.0986H64.7624H63.9336H54.6237L52.8455 22.5836H63.9336V42.6271H88.6596V35.9269H71.8692V21.0986Z" fill="white"/>
<path d="M44.3133 0H36.3777V16.3432H44.3133V0Z" fill="white"/>
<path d="M22.0285 16.3432H24.1654V0H16.2268V14.8583H1.78121L0 16.3432H16.2268H22.0285Z" fill="white"/>
<path d="M36.3777 21.0986H32.4596L30.6814 22.5836H36.4078V33.7957C36.4078 35.3197 35.1842 36.5371 33.3547 36.5371H27.2185C25.386 36.5371 24.1654 35.3347 24.1654 33.7957V21.0986H16.2268V35.0161C16.2268 39.8857 19.5873 43.2343 25.0816 43.2343H35.4614C40.9558 43.2343 44.3132 39.8857 44.3132 35.0161V21.0986H36.3777Z" fill="white"/>
<path d="M132.388 56.5869H130.839V71.0003H138.787V69.6597H132.388V56.5869Z" fill="white"/>
<path d="M159.802 56.5869C158.5 60.7652 157.18 64.9464 155.583 70.3811V71.0003H157.024L158.16 67.294H163.217L164.353 71.0003H165.797V70.3811C164.188 64.9464 162.868 60.7621 161.578 56.5869H159.802ZM158.564 65.9564L160.64 59.16H160.743L162.807 65.9564H158.564Z" fill="white"/>
<path d="M190.291 63.3803V63.2781C190.291 63.2781 191.738 63.0737 191.738 61.219V59.5718C191.738 57.8223 190.499 56.5869 188.537 56.5869H183.48V71.0003H189.155C191.117 71.0003 192.355 69.7649 192.355 68.0124V65.8512C192.39 65.255 192.196 64.668 191.812 64.2092C191.429 63.7504 190.885 63.4541 190.291 63.3803ZM185.029 57.9246H188.537C188.755 57.9217 188.971 57.9624 189.172 58.0442C189.374 58.126 189.557 58.2472 189.711 58.4007C189.865 58.5542 189.987 58.737 190.069 58.9381C190.151 59.1392 190.191 59.3547 190.188 59.5718V61.219C190.191 61.4362 190.151 61.6516 190.069 61.8528C189.987 62.0539 189.865 62.2366 189.711 62.3901C189.557 62.5437 189.374 62.6649 189.172 62.7467C188.971 62.8284 188.755 62.8691 188.537 62.8663H185.029V57.9246ZM190.806 68.0124C190.81 68.2297 190.769 68.4453 190.687 68.6466C190.605 68.848 190.484 69.0308 190.33 69.1845C190.176 69.3381 189.992 69.4593 189.791 69.5409C189.589 69.6225 189.372 69.6629 189.155 69.6597H185.029V64.2039H189.155C189.372 64.2011 189.588 64.2418 189.79 64.3236C189.992 64.4053 190.175 64.5266 190.329 64.6801C190.483 64.8336 190.604 65.0163 190.686 65.2175C190.768 65.4186 190.809 65.6341 190.806 65.8512V68.0124Z" fill="white"/>
<path d="M214.788 63.3803L211.488 62.5567C210.662 62.3523 210.249 61.9405 210.249 61.0146V59.5718C210.246 59.3547 210.287 59.1392 210.369 58.9381C210.451 58.737 210.572 58.5542 210.726 58.4007C210.88 58.2472 211.063 58.126 211.265 58.0442C211.467 57.9624 211.683 57.9217 211.901 57.9246H216.234L216.647 57.5127V56.5869H211.901C209.938 56.5869 208.7 57.8223 208.7 59.5718V61.0207C208.7 62.6679 209.628 63.5937 210.867 63.9003L214.182 64.724C215.008 64.9314 215.421 65.3432 215.421 66.269V68.0185C215.424 68.2356 215.383 68.451 215.301 68.6522C215.219 68.8533 215.097 69.036 214.943 69.1895C214.789 69.3431 214.606 69.4643 214.404 69.5461C214.203 69.6279 213.987 69.6685 213.769 69.6657H208.492V71.0064H213.757C215.719 71.0064 216.958 69.7709 216.958 68.0185V66.269C216.958 64.6278 216.03 63.6899 214.788 63.3803Z" fill="white"/>
</g>
<defs>
<clipPath id="clip0_1193_457">
<rect width="217" height="71" fill="white"/>
</clipPath>
</defs>
</svg>
