<svg id="Layer_1" data-name="Layer 1" xmlns="http://www.w3.org/2000/svg" viewBox="0 0 323.89 40.8"><defs><style>.cls-1{fill:#00a17c;}.cls-2{fill:#38b673;}.cls-3{fill:#8ec74e;}.cls-4{fill:#236d76;}.cls-5{fill:#103540;}</style></defs><title>limetree-logo-dark</title><polygon class="cls-1" points="40.8 0 40.8 40.8 11.95 28.85 40.8 0"/><polygon class="cls-2" points="40.8 0 40.8 40.8 69.66 28.85 40.8 0"/><polygon class="cls-3" points="40.8 0 69.66 28.85 81.61 0 40.8 0"/><polygon class="cls-4" points="40.8 0 11.95 28.85 0 0 40.8 0"/><path class="cls-5" d="M562.75,313.17c-.19,1.05-.39,2.1-.56,3.16q-.86,5.12-1.69,10.24L558,341.69a2.72,2.72,0,0,1-4.17,2.06,2.32,2.32,0,0,1-1.1-1.94c-1.16-6.84-2.28-13.69-3.41-20.55-.44-2.64-.86-5.29-1.29-7.94,0-.09-.06-.18-.26-.26,0,.44-.06.88-.06,1.32q0,13.35,0,26.69a8.38,8.38,0,0,1-.09,1.23,2.07,2.07,0,0,1-4.11-.22c0-.26,0-.52,0-.78V307.7c0-.23,0-.46,0-.7.06-1.41.58-2.1,2-2.21a22.17,22.17,0,0,1,3.55.06,1.71,1.71,0,0,1,1.64,1.51c.43,2.41.85,4.83,1.24,7.25.54,3.36,1.06,6.73,1.59,10.09s1.11,6.88,1.67,10.32a4.06,4.06,0,0,0,.37,1.24c.09-.4.19-.8.26-1.2q1-6.19,2-12.38,1-6.44,2-12.85c.13-.84.29-1.68.47-2.51a1.69,1.69,0,0,1,1.53-1.45,24.75,24.75,0,0,1,3.85,0,1.64,1.64,0,0,1,1.61,1.69,14.5,14.5,0,0,1,.09,1.47q0,16.53,0,33.06a8.89,8.89,0,0,1-.08,1.15,1.88,1.88,0,0,1-2.13,1.84,1.85,1.85,0,0,1-2.07-1.9c0-.46-.06-.93-.06-1.39V313.19Z" transform="translate(-414.46 -304.47)"/><path class="cls-5" d="M715,324a15.57,15.57,0,0,1,1.34.89,4.89,4.89,0,0,1,1.84,3.86c.06,3.13.18,6.27,0,9.38-.19,2.84-1.64,5.22-5.36,5.62a65.48,65.48,0,0,1-8,.15c-1.25,0-1.83-.76-1.92-2,0-.31,0-.62,0-.93V307.83c0-2.4.57-3,3-3s4.7,0,7,.19a5.35,5.35,0,0,1,4.29,2.59,8,8,0,0,1,1.07,4.22c0,2.22.08,4.45,0,6.67s-.7,4.13-2.88,5.18a.52.52,0,0,0-.18.15S715,323.94,715,324Zm-7.85,8.9c0,2.09,0,4.19,0,6.28,0,.5.1.76.68.74,1.19,0,2.38,0,3.57,0a2.43,2.43,0,0,0,2.47-2.47q.06-4.33,0-8.69a2.54,2.54,0,0,0-2.39-2.67c-1.13-.13-2.28,0-3.41-.12-.7-.05-.94.16-.93.89C707.14,328.86,707.11,330.88,707.11,332.9Zm0-17.45c0,1.94,0,3.87,0,5.81,0,.5.11.77.68.75,1.08,0,2.17,0,3.25-.06a2.64,2.64,0,0,0,2.66-2.84c0-2.56,0-5.11,0-7.67a2.41,2.41,0,0,0-2.6-2.55c-1.08,0-2.17,0-3.25,0-.61,0-.75.21-.74.77C707.12,311.57,707.11,313.51,707.11,315.45Z" transform="translate(-414.46 -304.47)"/><path class="cls-5" d="M618.78,325.58a4.2,4.2,0,0,1,3.06,3.09,8.73,8.73,0,0,1,.22,1.84q0,5.58,0,11.17c0,2-1.21,2.84-3.12,2.27-.94-.28-1.31-.84-1.32-2v-9.62c0-.57,0-1.14,0-1.7a2.82,2.82,0,0,0-2.9-3.06c-1.09-.07-2.18,0-3.26,0-.51,0-.51.3-.51.66v13.5c0,2.21-1.29,2.61-3.08,2.28a1.49,1.49,0,0,1-1.29-1.26,7.46,7.46,0,0,1-.11-1.15V307.8a6.41,6.41,0,0,1,.09-1.16c.22-1.15.77-1.74,1.93-1.75a72,72,0,0,1,8,.16c3.42.35,5.31,2.63,5.42,6.07.07,2.45.13,4.9.13,7.36a20.36,20.36,0,0,1-.31,3.3,4.75,4.75,0,0,1-2.56,3.42,2.2,2.2,0,0,0-.32.21A.82.82,0,0,0,618.78,325.58ZM611,323.53c1.29,0,2.51.05,3.72,0a2.74,2.74,0,0,0,2.88-3q.08-4.46,0-8.92a2.5,2.5,0,0,0-2.66-2.7c-1.06-.06-2.12,0-3.18-.05-.66,0-.83.19-.82.83,0,4.37,0,8.74,0,13.11C610.92,323,610.94,323.22,611,323.53Z" transform="translate(-414.46 -304.47)"/><path class="cls-5" d="M738.19,313.71c0,1.11,0,2.23,0,3.34s-.8,1.71-2.06,1.73-2.06-.55-2.11-1.66c-.08-1.75-.07-3.51-.1-5.27a7.18,7.18,0,0,0-.11-1.39,2.17,2.17,0,0,0-2-1.82,10.88,10.88,0,0,0-2.55,0,2.17,2.17,0,0,0-2,2.2c-.11,2.16,0,4.34,0,6.5a3.31,3.31,0,0,0,1.56,2.49c1.85,1.41,3.75,2.76,5.62,4.14,1.69,1.24,3.19,2.65,3.64,4.83a11.1,11.1,0,0,1,.27,2.15c0,2.63,0,5.27-.17,7.9a5.41,5.41,0,0,1-4.16,5,12.38,12.38,0,0,1-7.84-.3,5,5,0,0,1-3.16-4.18,54.38,54.38,0,0,1-.27-5.57,26.41,26.41,0,0,1,.08-3.33c.1-1.09.78-1.58,2-1.62s2,.44,2.15,1.53a23.58,23.58,0,0,1,.11,2.79c0,1.55,0,3.1.06,4.65a2.19,2.19,0,0,0,2.1,2.36,9.89,9.89,0,0,0,2.77-.08,2,2,0,0,0,1.8-2c.06-2.56.1-5.12,0-7.67-.06-1.44-1.24-2.27-2.31-3-1.74-1.3-3.49-2.58-5.27-3.83a7.58,7.58,0,0,1-3.44-6.43,70.57,70.57,0,0,1,.23-7.42,5.27,5.27,0,0,1,4.6-4.86,12.26,12.26,0,0,1,7.24.44,4.84,4.84,0,0,1,3,3.69c.3,1.56.34,3.17.49,4.76Z" transform="translate(-414.46 -304.47)"/><path class="cls-5" d="M690.23,304.67c.28,0,.57,0,.85,0,1.47.08,2.1.72,2.37,2.44.91,6,1.8,12.05,2.72,18.07.62,4.13,1.29,8.26,1.93,12.39.22,1.43.42,2.86.62,4.29a1.74,1.74,0,0,1-1.57,2.16c-1.34.25-2.36-.27-2.58-1.43-.25-1.34-.43-2.7-.6-4.06-.14-1.09-.12-1.1-1.19-1.1-1.86,0-3.72,0-5.58,0-.52,0-.73.16-.79.68-.19,1.48-.4,3-.67,4.43a2,2,0,0,1-2.47,1.5,1.67,1.67,0,0,1-1.56-2.15c.29-2.12.62-4.23.94-6.35l1.38-9.11c.53-3.44,1.07-6.88,1.59-10.32.46-3,.93-6,1.34-9C687.23,305.22,687.92,304.65,690.23,304.67Zm2.95,28.68c-1-7.05-1.94-14-2.9-21H690c-1,7-2,14-3,21Z" transform="translate(-414.46 -304.47)"/><path class="cls-5" d="M631.25,326c0,4.49,0,8.84,0,13.18,0,.59.33.6.75.6,1.91,0,3.82,0,5.73.09,1.11,0,1.56.67,1.57,2s-.45,1.93-1.54,2-2.17,0-3.26,0h-5.12c-1.87,0-2.59-.75-2.59-2.68V307.58c0-2,.72-2.73,2.7-2.73,2.46,0,4.91,0,7.37,0,2,0,2.8,1.15,2.18,3.06a1.33,1.33,0,0,1-1.34,1c-1.86,0-3.72.09-5.58.07-.69,0-.88.2-.87.88q0,5.63,0,11.25c0,.7.2.89.87.87,1.53,0,3,0,4.58,0,2,0,2.45,1.16,2,3.05a1.24,1.24,0,0,1-1.3.93c-1.7.06-3.41.07-5.11.1Z" transform="translate(-414.46 -304.47)"/><path class="cls-5" d="M576.64,333c0,2,0,4,0,6,0,.62.2.81.8.81,1.91,0,3.83,0,5.74.08.94,0,1.32.45,1.48,1.38.31,1.84-.35,2.65-2.22,2.65h-7.68c-1.8,0-2.51-.7-2.51-2.49q0-17,0-34.07c0-1.83.71-2.52,2.55-2.53,2.54,0,5.07,0,7.61,0,2.12,0,2.44,1.14,2,3.18a1.23,1.23,0,0,1-1.33.87c-1.84,0-3.67.09-5.51.07-.7,0-.93.19-.92.92,0,3.73,0,7.45,0,11.18,0,.74.24.92.93.9,1.5,0,3,0,4.5,0,2.06,0,2.51,1.14,2.07,3.09a1.24,1.24,0,0,1-1.32.89c-1.76.06-3.51.11-5.27.09-.72,0-.93.17-.91.9C576.67,328.93,576.64,331,576.64,333Z" transform="translate(-414.46 -304.47)"/><path class="cls-5" d="M643.47,324.4V307.87c0-.29,0-.57,0-.86.07-1.35.72-2.11,2.06-2.13,2.85-.06,5.7-.05,8.54,0,1.26,0,1.69.61,1.7,2s-.34,2-1.7,2c-1.75.08-3.51.08-5.27.06-.67,0-.95.14-.94.9q0,5.63,0,11.26c0,.63.18.86.83.84,1.52,0,3,0,4.58,0,2.1,0,2.51,1.16,2.09,3.07a1.23,1.23,0,0,1-1.3.91c-1.76.06-3.52.12-5.27.08-.77,0-.94.23-.93,1,0,4,0,7.92,0,11.88,0,.81.26,1,1,1,1.84,0,3.67,0,5.51.08,1,0,1.36.45,1.5,1.43.28,1.82-.37,2.6-2.2,2.6H646c-1.84,0-2.53-.7-2.54-2.55Z" transform="translate(-414.46 -304.47)"/><path class="cls-5" d="M597.32,326v15.05c0,.31,0,.62,0,.93,0,.74-.1,1.47-.91,1.81a2.89,2.89,0,0,1-2.82-.18c-.33-.22-.47-.76-.62-1.18a2.68,2.68,0,0,1,0-.85V310c0-1,0-1-1-1s-2.28,0-3.42,0-1.53-.61-1.6-1.88.44-2,1.44-2.12a4.85,4.85,0,0,1,.85,0c3.93,0,7.87,0,11.8,0,1.94,0,2.64.91,2.23,2.83a1.37,1.37,0,0,1-1.39,1.21c-1.19,0-2.38.07-3.57,0-.77,0-1,.26-1,1C597.33,315.27,597.32,320.65,597.32,326Z" transform="translate(-414.46 -304.47)"/><path class="cls-5" d="M518.69,324.19V307c0-.77,0-1.56.77-2a2.81,2.81,0,0,1,2.83,0,2,2,0,0,1,.72,1.11,5.66,5.66,0,0,1,.1,1.54q0,15.48,0,31c0,1.2,0,1.2,1.23,1.2,1.44,0,2.89,0,4.34,0s1.86.53,1.86,2-.47,2.07-1.85,2.08c-2.59,0-5.18,0-7.76,0-1.53,0-2.24-.79-2.24-2.36Q518.69,332.89,518.69,324.19Z" transform="translate(-414.46 -304.47)"/><path class="cls-5" d="M667.39,324.19V307.12a2.22,2.22,0,0,1,3.46-2.12,2.24,2.24,0,0,1,.86,1.18,4.2,4.2,0,0,1,.09,1.38q0,15.63,0,31.27c0,1,0,1,1,1,1.53,0,3.05,0,4.58,0s1.85.53,1.86,2-.47,2.07-1.85,2.08c-2.59,0-5.18,0-7.76,0-1.56,0-2.24-.79-2.25-2.44Z" transform="translate(-414.46 -304.47)"/><path class="cls-5" d="M538.58,324.4v17.23c0,2.11-1.46,3.09-3.41,2.21a2.26,2.26,0,0,1-.91-1.15,3.48,3.48,0,0,1-.11-1.3V307.25c-.13-2.46,1.31-2.78,3.29-2.37.76.16,1.13.8,1.13,1.82,0,2.13,0,4.25,0,6.37Z" transform="translate(-414.46 -304.47)"/></svg>