<svg width="234" height="25" viewBox="0 0 234 25" fill="none" xmlns="http://www.w3.org/2000/svg">
<g clip-path="url(#clip0_13065_66816)">
<path d="M48.9837 9.70746L44.0931 10.7084C43.9506 9.8846 43.5147 9.1406 42.8663 8.61462C42.218 8.08863 41.4012 7.81641 40.5678 7.84849C38.909 7.84849 37.8535 8.7555 37.8535 9.89131C37.8535 10.7084 38.2162 11.3131 39.4837 11.5828L43.6733 12.5225C47.1701 13.3069 49.2201 15.2108 49.2201 18.4139C49.2201 22.7365 45.3932 24.951 40.902 24.951C36.4107 24.951 32.6124 22.7774 32.0703 18.8225L37.1932 17.8297C37.7068 19.9134 39.1536 20.8204 41.171 20.8204C43.0416 20.8204 44.1583 19.9706 44.1583 18.7326C44.1583 17.8297 43.7508 17.2536 42.2876 16.9513L38.0695 16.0443C35.1759 15.3783 32.6409 13.8666 32.6409 10.1814C32.6409 6.2551 35.9013 3.8078 40.6289 3.8078C45.0345 3.84866 48.2297 6.02221 48.9837 9.70746Z" fill="#1F1F1F"/>
<path d="M72.1936 16.9636C71.2603 22.0379 67.1929 25 62.0048 25C56.0056 25 51.2739 20.3751 51.2739 14.4223C51.2739 8.46955 56.0056 3.84869 62.0048 3.84869C66.981 3.84869 71.1991 6.80669 72.165 11.6114L67.2744 12.7595C66.6386 9.83006 64.5886 8.40826 61.9966 8.40826C58.8014 8.40826 56.242 10.9781 56.242 14.4223C56.242 17.8665 58.8014 20.4691 61.9966 20.4691C64.5601 20.4691 66.6101 19.0187 67.2948 15.9749L72.1936 16.9636Z" fill="#1F1F1F"/>
<path d="M89.1357 24.5506L87.7174 20.8735H79.2159L77.8098 24.5506H72.4668L80.9072 4.29807H86.0016L94.442 24.5506H89.1357ZM83.4666 9.92398L80.9072 16.5713H86.0627L83.4666 9.92398Z" fill="#1F1F1F"/>
<path d="M111.111 24.5506H96.1865V4.29807H101.163V20.1953H111.111V24.5506Z" fill="#1F1F1F"/>
<path d="M129.618 24.5506H113.882V4.29807H129.528V8.59207H118.854V12.3999H128.636V16.4487H118.854V20.2566H129.618V24.5506Z" fill="#1F1F1F"/>
<path d="M135.405 13.789H147.069V15.1781H135.405V24.5506H133.869V4.29807H148.035V5.69127H135.401L135.405 13.789Z" fill="#1F1F1F"/>
<path d="M165.878 24.5506L157.56 15.2394H153.129V24.5506H151.577V4.29807H160.767C164.537 4.29807 167.039 6.47571 167.039 9.76873C167.039 13.0618 164.537 15.2394 160.767 15.2394H159.471L167.879 24.5506H165.878ZM160.783 13.883C163.636 13.883 165.548 12.2487 165.548 9.77282C165.548 7.29692 163.648 5.68718 160.783 5.68718H153.129V13.8585L160.783 13.883Z" fill="#1F1F1F"/>
<path d="M191.052 14.4223C191.032 16.4661 190.409 18.4583 189.261 20.1477C188.114 21.8371 186.493 23.1481 184.603 23.9156C182.713 24.6831 180.639 24.8726 178.642 24.4604C176.645 24.0481 174.815 23.0525 173.381 21.599C171.948 20.1455 170.976 18.2991 170.587 16.2926C170.199 14.2861 170.411 12.2092 171.198 10.3237C171.985 8.43815 173.312 6.82836 175.01 5.69717C176.708 4.56599 178.702 3.96403 180.741 3.96716C182.107 3.95989 183.461 4.22624 184.723 4.75057C185.985 5.27491 187.13 6.04666 188.09 7.02054C189.051 7.99443 189.808 9.15082 190.316 10.4219C190.825 11.6929 191.075 13.053 191.052 14.4223ZM189.544 14.4223C189.544 9.34794 185.685 5.38895 180.741 5.38895C175.798 5.38895 171.909 9.34794 171.909 14.4223C171.909 19.4967 175.769 23.4597 180.741 23.4597C185.713 23.4597 189.544 19.5293 189.544 14.4223Z" fill="#1F1F1F"/>
<path d="M212.934 24.5506H211.576L197.377 6.92922V24.5506H195.841V4.29807H197.198L211.426 22.0379V4.29807H212.934V24.5506Z" fill="#1F1F1F"/>
<path d="M226.134 5.69127V24.5506H224.569V5.69127H216.699V4.29807H234.004V5.69127H226.134Z" fill="#1F1F1F"/>
<path d="M5.34708 21.1187H0.216003C0.0967076 21.1187 0 21.2156 0 21.3352V24.5996C0 24.7192 0.0967076 24.8162 0.216003 24.8162H5.34708C5.46638 24.8162 5.56308 24.7192 5.56308 24.5996V21.3352C5.56308 21.2156 5.46638 21.1187 5.34708 21.1187Z" fill="url(#paint0_linear_13065_66816)"/>
<path d="M11.6031 16.2036H6.70023C6.51792 16.2036 6.37012 16.3518 6.37012 16.5346V24.4852C6.37012 24.668 6.51792 24.8162 6.70023 24.8162H11.6031C11.7854 24.8162 11.9332 24.668 11.9332 24.4852V16.5346C11.9332 16.3518 11.7854 16.2036 11.6031 16.2036Z" fill="url(#paint1_linear_13065_66816)"/>
<path d="M17.9121 11.1946H13.1315C12.9154 11.1946 12.7402 11.3702 12.7402 11.5868V24.4239C12.7402 24.6405 12.9154 24.8161 13.1315 24.8161H17.9121C18.1282 24.8161 18.3033 24.6405 18.3033 24.4239V11.5868C18.3033 11.3702 18.1282 11.1946 17.9121 11.1946Z" fill="url(#paint2_linear_13065_66816)"/>
<path d="M24.18 4.82922H19.595C19.3249 4.82922 19.106 5.04873 19.106 5.3195V24.33C19.106 24.6007 19.3249 24.8202 19.595 24.8202H24.18C24.4501 24.8202 24.669 24.6007 24.669 24.33V5.3195C24.669 5.04873 24.4501 4.82922 24.18 4.82922Z" fill="url(#paint3_linear_13065_66816)"/>
<path d="M16.938 6.00997C16.938 6.00997 19.2651 5.39713 20.8301 5.1193L21.5229 9.33159H22.2565L22.9535 5.0907C24.5185 5.36035 26.8415 6.00997 26.8415 6.00997L21.8979 0L16.938 6.00997Z" fill="url(#paint4_linear_13065_66816)"/>
</g>
<defs>
<linearGradient id="paint0_linear_13065_66816" x1="2.78358" y1="16.4937" x2="2.78358" y2="23.9418" gradientUnits="userSpaceOnUse">
<stop offset="0.06" stop-color="#006D5B"/>
<stop offset="0.95" stop-color="#004E40"/>
</linearGradient>
<linearGradient id="paint1_linear_13065_66816" x1="131.317" y1="231.517" x2="131.317" y2="507.031" gradientUnits="userSpaceOnUse">
<stop offset="0.06" stop-color="#006D5B"/>
<stop offset="0.95" stop-color="#004E40"/>
</linearGradient>
<linearGradient id="paint2_linear_13065_66816" x1="224.638" y1="214.019" x2="224.638" y2="773.046" gradientUnits="userSpaceOnUse">
<stop offset="0.06" stop-color="#006D5B"/>
<stop offset="0.95" stop-color="#004E40"/>
</linearGradient>
<linearGradient id="paint3_linear_13065_66816" x1="317.899" y1="99.5866" x2="317.899" y2="1101.54" gradientUnits="userSpaceOnUse">
<stop offset="0.06" stop-color="#006D5B"/>
<stop offset="0.95" stop-color="#004E40"/>
</linearGradient>
<linearGradient id="paint4_linear_13065_66816" x1="995.306" y1="621.671" x2="995.306" y2="1015.74" gradientUnits="userSpaceOnUse">
<stop offset="0.06" stop-color="#006D5B"/>
<stop offset="0.95" stop-color="#004E40"/>
</linearGradient>
<clipPath id="clip0_13065_66816">
<rect width="234" height="25" fill="white"/>
</clipPath>
</defs>
</svg>
